<svg height="496pt" viewBox="-12 0 496 496" width="496pt" xmlns="http://www.w3.org/2000/svg"><path d="m472 232v232c0 17.679688-14.320312 32-32 32h-176c-17.679688 0-32-14.320312-32-32v-232h40v151.984375h160v-151.984375zm0 0" fill="#4fc1e9"/><path d="m0 376c0 52.960938 42.960938 96 96 96s96-43.039062 96-96v24c0 52.960938-42.960938 96-96 96s-96-43.039062-96-96zm0 0" fill="#ccd1d9"/><path d="m3.039062 352c10.640626 41.359375 48.242188 72 92.960938 72s82.320312-30.640625 92.960938-72c2 7.601562 3.039062 15.679688 3.039062 24 0 52.960938-42.960938 96-96 96s-96-43.039062-96-96c0-8.320312 1.039062-16.398438 3.039062-24zm0 0" fill="#e6e9ed"/><path d="m0 304c0 52.960938 42.960938 96 96 96s96-43.039062 96-96v24c0 8.230469-1.039062 16.320312-3.039062 24-10.640626 41.359375-48.242188 72-92.960938 72s-82.320312-30.640625-92.960938-72c-2-7.679688-3.039062-15.769531-3.039062-24zm0 0" fill="#ccd1d9"/><path d="m3.039062 280c10.640626 41.359375 48.242188 72 92.960938 72s82.320312-30.640625 92.960938-72c2 7.601562 3.039062 15.679688 3.039062 24 0 52.960938-42.960938 96-96 96s-96-43.039062-96-96c0-8.320312 1.039062-16.398438 3.039062-24zm0 0" fill="#e6e9ed"/><path d="m0 232c0 52.960938 42.960938 96 96 96s96-43.039062 96-96v24c0 8.230469-1.039062 16.320312-3.039062 24-10.640626 41.359375-48.242188 72-92.960938 72s-82.320312-30.640625-92.960938-72c-2-7.679688-3.039062-15.769531-3.039062-24zm0 0" fill="#ccd1d9"/><path d="m0 232c0-53.039062 42.960938-96 96-96s96 42.960938 96 96c0 52.960938-42.960938 96-96 96s-96-43.039062-96-96zm0 0" fill="#e6e9ed"/><path d="m304 0c-4.398438 0-8 3.601562-8 8v16 16 47.9375c0 4.398438 3.601562 8 8 8h96c4.398438 0 8-3.601562 8-8v-48.015625c0-4.402344 0-11.601563 0-16v-15.921875c0-4.398438-3.601562-8-8-8zm0 0" fill="#4fc1e9"/><path d="m400 0h-16.023438v79.921875h24.023438v-40c0-2.203125 0-5.105469 0-8 0-2.898437 0-5.800781 0-8v-15.921875c0-4.398438-3.601562-8-8-8zm0 0" fill="#3bafda"/><path d="m472 143.921875v88.078125h-40v-32.0625h-160v32.0625h-40v-88.078125c0-35.371094 28.640625-64 64-64h112c35.359375 0 64 28.628906 64 64zm0 0" fill="#e6e9ed"/><path d="m408 79.921875h-24.023438c35.359376 0 64 28.628906 64 64v88.078125h24.023438v-88.078125c0-35.371094-28.640625-64-64-64zm0 0" fill="#ccd1d9"/><path d="m432 224v16 152c0 4.398438-3.601562 8-8 8h-144c-4.398438 0-8-3.601562-8-8v-152c0-4.398438 0-11.601562 0-16v-32.078125c0-4.402344 3.601562-8 8-8h144c4.398438 0 8 3.597656 8 8zm-80 79.921875c17.679688 0 32-14.320313 32-32 0-17.691406-26.191406-42.507813-26.191406-42.507813-3.183594-3.023437-8.425782-3.023437-11.609375 0 0 0-26.191407 24.816407-26.191407 42.507813-.007812 17.679687 14.3125 32 31.992188 32zm0 0" fill="#fff"/><path d="m447.976562 232v232c0 17.679688-14.320312 32-32 32h24.023438c17.679688 0 32-14.320312 32-32v-232zm0 0" fill="#3bafda"/><path d="m392 328.007812h-80c-4.425781 0-8 3.578126-8 8 0 4.425782 3.574219 8 8 8h80c4.425781 0 8-3.574218 8-8 0-4.421874-3.574219-8-8-8zm0 0" fill="#e6e9ed"/><path d="m376 352.007812h-48c-4.425781 0-8 3.578126-8 8 0 4.425782 3.574219 8 8 8h48c4.425781 0 8-3.574218 8-8 0-4.421874-3.574219-8-8-8zm0 0" fill="#e6e9ed"/><path d="m408 23.976562h-40c-4.425781 0-8 3.574219-8 8 0 4.414063-3.585938 8-8 8s-8-3.585937-8-8c0 0 0 0 0-.007812 0-.710938-.230469-1.34375-.40625-2-.097656-.359375-.082031-.769531-.226562-1.113281-.070313-.175781-.222657-.296875-.3125-.472657-1.320313-2.589843-3.941407-4.414062-7.054688-4.414062h-.007812l-39.992188.03125v16h.007812l33.472657-.015625c3.3125 9.289063 12.113281 15.992187 22.519531 15.992187s19.207031-6.710937 22.519531-16h33.480469zm0 0" fill="#3bafda"/><path d="m383.976562 23.976562h24.023438v15.945313h-24.023438zm0 0" fill="#369ece"/><path d="m384 271.921875c0 17.679687-14.320312 32-32 32s-32-14.320313-32-32c0-17.691406 32-48 32-48s32 30.308594 32 48zm0 0" fill="#4fc1e9"/></svg>