<?xml version="1.0" encoding="utf-8"?>
<!-- Generator: Adobe Illustrator 22.1.0, SVG Export Plug-In . SVG Version: 6.00 Build 0)  -->
<svg version="1.1" id="Capa_1" xmlns="http://www.w3.org/2000/svg" xmlns:xlink="http://www.w3.org/1999/xlink" x="0px" y="0px"
	 viewBox="0 0 49 49" style="enable-background:new 0 0 49 49;" xml:space="preserve">
<style type="text/css">
	.st0{fill:#E22F37;}
	.st1{fill:#F75B57;}
	.st2{fill:#994530;}
	.st3{fill:#FFEB3B;}
</style>
<g>
	<path class="st0" d="M9.5,27V5.9c0-1.4,0.8-2.6,2.1-3.1l0,0c1-0.4,1.9-1.7,1.9-2.8v0l0,0h11h11l0,0v0c0,1.1,0.9,2.4,1.9,2.8l0,0
		c1.3,0.5,2.1,1.7,2.1,3.1V27v-5v21.1c0,1.4-0.8,2.6-2.1,3.1l0,0c-1,0.4-1.9,1.7-1.9,2.8v0l0,0h-11h-11l0,0v0c0-1.1-0.9-2.4-1.9-2.8
		l0,0c-1.3-0.5-2.1-1.7-2.1-3.1V22"/>
	<path class="st1" d="M18.5,7h-5c-0.6,0-1-0.4-1-1s0.4-1,1-1h5c0.6,0,1,0.4,1,1S19.1,7,18.5,7z"/>
	<path class="st1" d="M35.5,7h-13c-0.6,0-1-0.4-1-1s0.4-1,1-1h13c0.6,0,1,0.4,1,1S36.1,7,35.5,7z"/>
	<path class="st2" d="M18.5,45h-5c-0.6,0-1-0.4-1-1s0.4-1,1-1h5c0.6,0,1,0.4,1,1S19.1,45,18.5,45z"/>
	<path class="st2" d="M35.5,45h-13c-0.6,0-1-0.4-1-1s0.4-1,1-1h13c0.6,0,1,0.4,1,1S36.1,45,35.5,45z"/>
	<polygon class="st3" points="31.6,24.3 25.1,24.3 27.7,11.3 17.4,26.7 23.9,26.7 21.3,39.8 	"/>
</g>
</svg>
