<?xml version="1.0" encoding="utf-8"?>
<!-- Generator: Adobe Illustrator 22.1.0, SVG Export Plug-In . SVG Version: 6.00 Build 0)  -->
<svg version="1.1" id="Capa_1" xmlns="http://www.w3.org/2000/svg" xmlns:xlink="http://www.w3.org/1999/xlink" x="0px" y="0px"
	 viewBox="0 0 512 512" style="enable-background:new 0 0 512 512;" xml:space="preserve">
<style type="text/css">
	.st0{fill:#E1EFFB;}
	.st1{fill:#FFFFFF;}
	.st2{fill:#65DB57;}
</style>
<path class="st0" d="M418,0H281.7c-4.2,0-7.6,3.4-7.6,7.6l0,0c0,4.2-3.4,7.6-7.6,7.6h-16.7c-4.2,0-7.6-3.4-7.6-7.6l0,0
	c0-4.2-3.4-7.6-7.6-7.6H94C79.7,0,68,11.7,68,26V486c0,14.4,11.7,26,26,26h140.6c4.2,0,7.6-3.4,7.6-7.6l0,0c0-4.2,3.4-7.6,7.6-7.6
	h16.7c4.2,0,7.6,3.4,7.6,7.6l0,0c0,4.2,3.4,7.6,7.6,7.6H418c14.4,0,26-11.7,26-26V26C444,11.7,432.3,0,418,0z"/>
<g>
	<path class="st1" d="M256,481.7c-4.3,0-7.7-3.5-7.7-7.7V46.7c0-4.3,3.5-7.7,7.7-7.7s7.7,3.5,7.7,7.7v427.2
		C263.7,478.2,260.3,481.7,256,481.7z"/>
	<path class="st1" d="M363.1,161.3l-65.9-65.9c-10.3-10.3-10.3-26.9,0-37.1l0,0c10.3-10.3,26.9-10.3,37.1,0l65.9,65.9
		c10.3,10.3,10.3,26.9,0,37.1l0,0C390,171.6,373.4,171.6,363.1,161.3z"/>
</g>
<path class="st2" d="M400.2,124.2l-33-33l-37.1,37.1l33,33c10.3,10.3,26.9,10.3,37.1,0l0,0C410.5,151.1,410.5,134.4,400.2,124.2z"/>
<path class="st1" d="M363.1,307.5l-65.9-65.9c-10.3-10.3-10.3-26.9,0-37.1l0,0c10.3-10.3,26.9-10.3,37.1,0l65.9,65.9
	c10.3,10.3,10.3,26.9,0,37.1l0,0C390,317.8,373.4,317.8,363.1,307.5z"/>
<path class="st2" d="M400.2,270.4l-33-33l-37.1,37.1l33,33c10.3,10.3,26.9,10.3,37.1,0l0,0C410.5,297.3,410.5,280.6,400.2,270.4z"/>
<path class="st1" d="M363.1,453.7l-65.9-65.9c-10.3-10.3-10.3-26.9,0-37.1l0,0c10.3-10.3,26.9-10.3,37.1,0l65.9,65.9
	c10.3,10.3,10.3,26.9,0,37.1l0,0C390,464,373.4,464,363.1,453.7z"/>
<path class="st2" d="M400.2,416.6l-33-33l-37.1,37.1l33,33c10.3,10.3,26.9,10.3,37.1,0l0,0C410.5,443.5,410.5,426.9,400.2,416.6z"/>
<path class="st1" d="M177.7,161.3l-65.9-65.9c-10.3-10.3-10.3-26.9,0-37.1l0,0c10.3-10.3,26.9-10.3,37.1,0l65.9,65.9
	c10.3,10.3,10.3,26.9,0,37.1l0,0C204.6,171.6,187.9,171.6,177.7,161.3z"/>
<path class="st2" d="M214.8,124.2l-33-33l-37.1,37.1l33,33c10.3,10.3,26.9,10.3,37.1,0l0,0C225.1,151.1,225.1,134.4,214.8,124.2z"/>
<path class="st1" d="M177.7,307.5l-65.9-65.9c-10.3-10.3-10.3-26.9,0-37.1l0,0c10.3-10.3,26.9-10.3,37.1,0l65.9,65.9
	c10.3,10.3,10.3,26.9,0,37.1l0,0C204.6,317.8,187.9,317.8,177.7,307.5z"/>
<path class="st2" d="M214.8,270.4l-33-33l-37.1,37.1l33,33c10.3,10.3,26.9,10.3,37.1,0l0,0C225.1,297.3,225.1,280.6,214.8,270.4z"/>
<path class="st1" d="M177.7,453.7l-65.9-65.9c-10.3-10.3-10.3-26.9,0-37.1l0,0c10.3-10.3,26.9-10.3,37.1,0l65.9,65.9
	c10.3,10.3,10.3,26.9,0,37.1l0,0C204.6,464,187.9,464,177.7,453.7z"/>
<path class="st2" d="M214.8,416.6l-33-33l-37.1,37.1l33,33c10.3,10.3,26.9,10.3,37.1,0l0,0C225.1,443.5,225.1,426.9,214.8,416.6z"/>
</svg>
