<?xml version="1.0" encoding="utf-8"?>
<!-- Generator: Adobe Illustrator 22.1.0, SVG Export Plug-In . SVG Version: 6.00 Build 0)  -->
<svg version="1.1" id="Capa_1" xmlns="http://www.w3.org/2000/svg" xmlns:xlink="http://www.w3.org/1999/xlink" x="0px" y="0px"
	 viewBox="0 0 512 512" style="enable-background:new 0 0 512 512;" xml:space="preserve">
<style type="text/css">
	.st0{fill:#FF9680;}
	.st1{fill:#FFD9B3;}
	.st2{fill:#FFBB99;}
	.st3{fill:#F3F5F9;}
</style>
<g>
	<g>
		<path class="st0" d="M481.3,332.7L394,245.4l-74.3,74.3l-74.3,74.3l87.3,87.3c41,41.1,107.5,41.1,148.5,0
			C522.2,440.3,522.2,373.6,481.3,332.7L481.3,332.7z"/>
		<path class="st0" d="M179.3,30.7c-40.9-40.9-107.6-40.9-148.5,0c-41.1,41.1-41.1,107.5,0,148.5l87.3,87.3l74.3-74.3l74.3-74.3
			L179.3,30.7z"/>
	</g>
	<path class="st1" d="M481.3,30.7c-41-40.9-107.6-41-148.5,0l-301.9,302c-41.1,41-41,107.5,0,148.5c41.1,41.1,107.5,41.1,148.5,0
		l302-301.9C522.2,138.3,522.2,71.7,481.3,30.7L481.3,30.7z"/>
	<circle class="st2" cx="342.3" cy="127.2" r="15"/>
	<circle class="st0" cx="384.8" cy="169.7" r="15"/>
	<circle class="st2" cx="384.8" cy="84.8" r="15"/>
	<circle class="st0" cx="427.2" cy="127.2" r="15"/>
	<circle class="st2" cx="84.8" cy="384.7" r="15"/>
	<circle class="st0" cx="127.3" cy="427.2" r="15"/>
	<circle class="st2" cx="127.3" cy="342.3" r="15"/>
	<circle class="st0" cx="169.7" cy="384.7" r="15"/>
	<path class="st3" d="M353,201.5l-21.2-21.2L310.5,159c-5.9-5.9-15.4-5.9-21.2,0L159.1,289.2c-5.9,5.9-5.9,15.4,0,21.2l21.2,21.2
		l21.2,21.2c5.9,5.9,15.4,5.9,21.2,0L353,222.7C358.8,216.9,358.8,207.4,353,201.5L353,201.5z"/>
</g>
</svg>
