<?xml version="1.0" encoding="utf-8"?>
<!-- Generator: Adobe Illustrator 22.1.0, SVG Export Plug-In . SVG Version: 6.00 Build 0)  -->
<svg version="1.1" id="Capa_1" xmlns="http://www.w3.org/2000/svg" xmlns:xlink="http://www.w3.org/1999/xlink" x="0px" y="0px"
	 viewBox="0 0 512 512" style="enable-background:new 0 0 512 512;" xml:space="preserve">
<style type="text/css">
	.st0{fill:#3D4759;}
	.st1{fill:#ECF2FF;}
	.st2{fill:#D9E5FF;}
	.st3{fill:#BFD6FF;}
	.st4{fill:#FFD580;}
	.st5{fill:#5B6373;}
	.st6{fill:#252E40;}
	.st7{fill:#79808C;}
	.st8{opacity:0.61;fill:#FAFBFC;}
</style>
<g>
	<path class="st0" d="M486.4,25.6L460.8,0h-38.2l-3.4,10.3c-6.2,18.6-16.8,35.8-30.7,49.7l-8.1,8.1c-5.2,5.2-14,5.6-19.9,1.3
		l6.7,36.7l19.4,19.4l24,24l32.1,2.1c-4.4-5.9-4-14.5,1.4-19.8l8.1-8.1c13.9-13.9,31-24.5,49.7-30.7l10.3-3.4V51.2L486.4,25.6z"/>
	<path class="st1" d="M421.5,157.8l-33.7-33.7l-24.8-24.8l-35.8-20.8l-63.6,63.6l21.2,51.2l16.8,16.8l32.4,32.4l35.7,5.7l63.6-63.6
		L421.5,157.8z"/>
	<path class="st2" d="M390.9,121.1l-10.6-10.6l-93.6,93.6l10.6,10.6l10.6,10.6l93.6-93.6L390.9,121.1z"/>
	<path class="st3" d="M297.2,214.7l93.6-93.6l10.6,10.6l-93.6,93.6L297.2,214.7z"/>
	<path class="st4" d="M316.7,195.3l-53-53l-42.4,42.4l17.5,47.5l20.6,20.6l36.2,36.2l31.8,1.8l42.4-42.4L316.7,195.3z"/>
	<path class="st1" d="M348.5,57.4L348.5,57.4L348.5,57.4L348.5,57.4z"/>
	<path class="st5" d="M274.3,237.7l-53-53L0,405.9l53,53l53,53l221.2-221.2L274.3,237.7z"/>
	<g>
		<path class="st0" d="M200,290.8L178.8,312l10.6,10.6l10.6,10.6l21.2-21.2l-10.6-10.6L200,290.8z"/>
		<path class="st0" d="M253,259l-10.6-10.6l-21.2,21.2l10.6,10.6l10.6,10.6l21.2-21.2L253,259z"/>
	</g>
	<path class="st6" d="M231.8,280.2L253,259l10.6,10.6l-21.2,21.2L231.8,280.2z"/>
	<path class="st6" d="M189.4,322.6l21.2-21.2l10.6,10.6L200,333.2L189.4,322.6z"/>
	<path class="st5" d="M442.6,151.5l-41-41l-41.1-41.1c-0.5-0.4-11.9-11.9-11.9-11.9l-0.1-0.1l-21.2,21.2l53,53l53,53l21.2-21.2
		C454.6,163.5,443,152,442.6,151.5L442.6,151.5z"/>
</g>
<path class="st7" d="M103,494.4l-85.4-85.4c-3.9-3.9-3.9-9.2,0-13.1c3.9-3.9,9.2-3.9,13.1,0l85.4,85.4c3.9,3.9,3.9,9.2,0,13.1
	C112.2,498.4,107,498.4,103,494.4z"/>
<path class="st8" d="M366,231.4l-85.4-85.4c-3.9-3.9-3.9-9.2,0-13.1c3.9-3.9,9.2-3.9,13.1,0l85.4,85.4c3.9,3.9,3.9,9.2,0,13.1
	C375.2,235.4,370,235.4,366,231.4z"/>
</svg>
